{"title":"BBC.Kingdom.of.Plants.3of4.HDTV.720p.Legendado.PT-BR","uid":9101974,"size":1643745404,"categoryP":"video","categoryS":"hd___tv_shows","magnet":"?xt=urn:btih:6925a988b4f510c6a4afa8cc1442b289b40dfa7d&amp;dn=BBC.Kingdom.of.Plants.3of4.HDTV.720p.Legendado.PT-BR&amp;tr=udp%3A%2F%2Ftracker.openbittorrent.com%3A80&amp;tr=udp%3A%2F%2Fopen.demonii.com%3A1337&amp;tr=udp%3A%2F%2Ftracker.coppersurfer.tk%3A6969&amp;tr=udp%3A%2F%2Fexodus.desync.com%3A6969","seeders":2,"leechers":1,"uploader":null,"files":1,"time":1382747398,"description":"Episode 1: https://thepiratebay.se/torrent/9101941\nEpisode 2: https://thepiratebay.se/torrent/9101961\n\n++++++++++++++++++++++++++++++++++++++++++\n\nAudio: English\nLegendas/Subtitles: Portugues (mkv track)\n\n++++++++++++++++++++++++++++++++++++++++++\n\nVideo\nID                             : 1\nFormat                         : AVC\nFormat/Info                    : Advanced Video Codec\nFormat profile                 : &lt;a class=&quot;__cf_email__&quot; href=&quot;/cdn-cgi/l/email-protection&quot; data-cfemail=&quot;2a62434d426a66190418&quot;&gt;[email&amp;#160;protected]&lt;/a&gt;&lt;script cf-hash='f9e31' type=&quot;text/javascript&quot;&gt;\n/* &lt;![CDATA[ */!function(){try{var t=&quot;currentScript&quot;in document?document.currentScript:function(){for(var t=document.getElementsByTagName(&quot;script&quot;),e=t.length;e--;)if(t[e].getAttribute(&quot;cf-hash&quot;))return t[e]}();if(t&amp;&amp;t.previousSibling){var e,r,n,i,c=t.previousSibling,a=c.getAttribute(&quot;data-cfemail&quot;);if(a){for(e=&quot;&quot;,r=parseInt(a.substr(0,2),16),n=2;a.length-n;n+=2)i=parseInt(a.substr(n,2),16)^r,e+=String.fromCharCode(i);e=document.createTextNode(e),c.parentNode.replaceChild(e,c)}}}catch(u){}}();/* ]]&gt; */&lt;/script&gt;\nFormat settings, CABAC         : Yes\nFormat settings, ReFrames      : 4 frames\nCodec ID                       : V_MPEG4/ISO/AVC\nDuration                       : 49mn 58s\nBit rate                       : 4 000 Kbps\nWidth                          : 1 280 pixels\nHeight                         : 720 pixels\nDisplay aspect ratio           : 16:9\nFrame rate mode                : Constant\nFrame rate                     : 60.000 fps\nColor space                    : YUV\nChroma subsampling             : 4:2:0\nBit depth                      : 8 bits\nScan type                      : Progressive\nBits/(Pixel*Frame)             : 0.072\nStream size                    : 1.37 GiB (89%)\nLanguage                       : English\nDefault                        : Yes\nForced                         : No\n\nAudio\nID                             : 2\nFormat                         : AC-3\nFormat/Info                    : Audio Coding 3\nDuration                       : 49mn 58s\nBit rate mode                  : Constant\nBit rate                       : 384 Kbps\nChannel(s)                     : 2 channels\nChannel positions              : Front: L R\nSampling rate                  : 48.0 KHz\nBit depth                      : 16 bits\nStream size                    : 137 MiB (9%)\nLanguage                       : English\nDefault                        : Yes\nForced                         : No\n\nText\nID                             : 3\nFormat                         : UTF-8\nCodec ID                       : S_TEXT/UTF8\nCodec ID/Info                  : UTF-8 Plain Text\nLanguage                       : Portuguese\nDefault                        : Yes\nForced                         : No\t\t\t","torrent":{"xt":"urn:btih:6925a988b4f510c6a4afa8cc1442b289b40dfa7d","amp;dn":"BBC.Kingdom.of.Plants.3of4.HDTV.720p.Legendado.PT-BR","amp;tr":["udp%3A%2F%2Ftracker.openbittorrent.com%3A80","udp%3A%2F%2Fopen.demonii.com%3A1337","udp%3A%2F%2Ftracker.coppersurfer.tk%3A6969","udp%3A%2F%2Fexodus.desync.com%3A6969"],"infoHash":"6925a988b4f510c6a4afa8cc1442b289b40dfa7d","infoHashBuffer":{"type":"Buffer","data":[105,37,169,136,180,245,16,198,164,175,168,204,20,66,178,137,180,13,250,125]},"announce":[],"urlList":[]}}